<svg width="208" height="208" viewBox="0 0 208 208" fill="none" xmlns="http://www.w3.org/2000/svg">
<g filter="url(#filter0_dd_3_286)">
<g clip-path="url(#clip0_3_286)">
<circle cx="104" cy="100" r="89.5" fill="#FFD485" stroke="#413633"/>
<circle cx="67" cy="70" r="24" fill="white"/>
<path fill-rule="evenodd" clip-rule="evenodd" d="M67 83.8947C74.6738 83.8947 80.8947 77.6738 80.8947 70C80.8947 62.3261 74.6738 56.1052 67 56.1052C65.7381 56.1052 64.5156 56.2734 63.3535 56.5886C66.2222 57.6684 68.2632 60.4379 68.2632 63.6842C68.2632 67.8699 64.8699 71.2631 60.6842 71.2631C57.438 71.2631 54.6684 69.2222 53.5887 66.3535C53.2735 67.5155 53.1053 68.7381 53.1053 70C53.1053 77.6738 59.3261 83.8947 67 83.8947Z" fill="#413633"/>
<path fill-rule="evenodd" clip-rule="evenodd" d="M67 83.8947C74.6738 83.8947 80.8947 77.6738 80.8947 70C80.8947 62.3261 74.6738 56.1052 67 56.1052C65.7381 56.1052 64.5156 56.2734 63.3535 56.5886C66.2222 57.6684 68.2632 60.4379 68.2632 63.6842C68.2632 67.8699 64.8699 71.2631 60.6842 71.2631C57.438 71.2631 54.6684 69.2222 53.5887 66.3535C53.2735 67.5155 53.1053 68.7381 53.1053 70C53.1053 77.6738 59.3261 83.8947 67 83.8947Z" fill="#413633"/>
<circle cx="140" cy="74" r="24" fill="white"/>
<path fill-rule="evenodd" clip-rule="evenodd" d="M127.967 80.9473C131.804 87.5931 140.302 89.8701 146.947 86.0332C153.593 82.1962 155.87 73.6984 152.033 67.0526C151.402 65.9598 150.645 64.9851 149.791 64.1363C150.291 67.1606 148.913 70.3129 146.101 71.936C142.476 74.0289 137.841 72.7869 135.748 69.1619C134.125 66.3506 134.508 62.9316 136.452 60.5622C135.288 60.8702 134.145 61.3358 133.053 61.9668C126.407 65.8037 124.13 74.3016 127.967 80.9473Z" fill="#413633"/>
<path fill-rule="evenodd" clip-rule="evenodd" d="M127.967 80.9473C131.804 87.5931 140.302 89.8701 146.947 86.0332C153.593 82.1962 155.87 73.6984 152.033 67.0526C151.402 65.9598 150.645 64.9851 149.791 64.1363C150.291 67.1606 148.913 70.3129 146.101 71.936C142.476 74.0289 137.841 72.7869 135.748 69.1619C134.125 66.3506 134.508 62.9316 136.452 60.5622C135.288 60.8702 134.145 61.3358 133.053 61.9668C126.407 65.8037 124.13 74.3016 127.967 80.9473Z" fill="#413633"/>
<circle cx="43" cy="98" r="19" fill="#FFD485"/>
<circle cx="157" cy="98" r="19" fill="#FFD485"/>
<path d="M138.514 119.836C141.432 132.799 129.925 146.429 112.813 150.28C95.7014 154.132 79.4643 146.746 76.5468 133.784C73.6293 120.821 88.2457 124.535 105.358 120.683C122.469 116.832 135.597 106.874 138.514 119.836Z" fill="#413633"/>
<path d="M93.8872 122.074L105.594 119.439L106.912 125.292C107.639 128.525 105.609 131.736 102.376 132.463V132.463C99.1429 133.191 95.9323 131.16 95.2047 127.927L93.8872 122.074Z" fill="white"/>
<path d="M105.594 119.439L117.301 116.804L118.619 122.657C119.347 125.89 117.316 129.101 114.083 129.828V129.828C110.85 130.556 107.639 128.525 106.912 125.292L105.594 119.439Z" fill="white"/>
<ellipse cx="35" cy="125.5" rx="5" ry="7.5" transform="rotate(-16.4774 35 125.5)" fill="#413633"/>
<ellipse cx="80.9219" cy="24.6103" rx="5" ry="7.5" transform="rotate(37.2596 80.9219 24.6103)" fill="#413633"/>
<ellipse cx="133.188" cy="28.0837" rx="6.07974" ry="5.53191" transform="rotate(37.2596 133.188 28.0837)" fill="#413633"/>
<ellipse cx="166.939" cy="100.134" rx="4.51091" ry="4.10443" transform="rotate(37.2596 166.939 100.134)" fill="#413633"/>
<ellipse cx="152.698" cy="171.803" rx="11.1333" ry="10.1301" transform="rotate(37.2596 152.698 171.803)" fill="#413633"/>
<ellipse cx="188.97" cy="67.8913" rx="5.73191" ry="5.21541" transform="rotate(37.2596 188.97 67.8913)" fill="#413633"/>
<ellipse cx="73.7196" cy="182.621" rx="5.73191" ry="5.21541" transform="rotate(37.2596 73.7196 182.621)" fill="#413633"/>
<ellipse cx="104.72" cy="99.6212" rx="5.73191" ry="5.21541" transform="rotate(37.2596 104.72 99.6212)" fill="#413633"/>
<ellipse cx="15.9941" cy="68.803" rx="11.1333" ry="10.1301" transform="rotate(37.2596 15.9941 68.803)" fill="#413633"/>
</g>
<rect x="11" y="7" width="186" height="186" rx="93" stroke="white" stroke-width="6" shape-rendering="crispEdges"/>
</g>
<defs>
<filter id="filter0_dd_3_286" x="0" y="0" width="208" height="208" filterUnits="userSpaceOnUse" color-interpolation-filters="sRGB">
<feFlood flood-opacity="0" result="BackgroundImageFix"/>
<feColorMatrix in="SourceAlpha" type="matrix" values="0 0 0 0 0 0 0 0 0 0 0 0 0 0 0 0 0 0 127 0" result="hardAlpha"/>
<feOffset dy="4"/>
<feGaussianBlur stdDeviation="4"/>
<feComposite in2="hardAlpha" operator="out"/>
<feColorMatrix type="matrix" values="0 0 0 0 0.978598 0 0 0 0 0.633683 0 0 0 0 0 0 0 0 0.4 0"/>
<feBlend mode="normal" in2="BackgroundImageFix" result="effect1_dropShadow_3_286"/>
<feColorMatrix in="SourceAlpha" type="matrix" values="0 0 0 0 0 0 0 0 0 0 0 0 0 0 0 0 0 0 127 0" result="hardAlpha"/>
<feOffset/>
<feGaussianBlur stdDeviation="1.5"/>
<feComposite in2="hardAlpha" operator="out"/>
<feColorMatrix type="matrix" values="0 0 0 0 0.532809 0 0 0 0 0.358842 0 0 0 0 0.0392301 0 0 0 0.6 0"/>
<feBlend mode="normal" in2="effect1_dropShadow_3_286" result="effect2_dropShadow_3_286"/>
<feBlend mode="normal" in="SourceGraphic" in2="effect2_dropShadow_3_286" result="shape"/>
</filter>
<clipPath id="clip0_3_286">
<rect x="14" y="10" width="180" height="180" rx="90" fill="white"/>
</clipPath>
</defs>
</svg>
