<svg width="24" height="24" viewBox="0 0 24 24" fill="none" xmlns="http://www.w3.org/2000/svg">
<path d="M19.875 18.75C19.8751 19.2426 19.7673 19.7293 19.5593 20.1758C19.3512 20.6223 19.048 21.0179 18.6708 21.3347C18.2936 21.6516 17.8516 21.882 17.3759 22.0098C16.9002 22.1377 16.4022 22.1598 15.917 22.0747C15.4318 21.9897 14.9711 21.7994 14.5673 21.5173C14.1635 21.2352 13.8263 20.8681 13.5794 20.4418C13.3325 20.0156 13.182 19.5404 13.1383 19.0497C13.0946 18.5591 13.1589 18.0648 13.3266 17.6016L8.35782 14.4094C7.88327 14.8749 7.28182 15.1899 6.62893 15.3149C5.97604 15.4398 5.30079 15.3692 4.68788 15.1119C4.07497 14.8545 3.5517 14.4219 3.18373 13.8683C2.81575 13.3147 2.61945 12.6648 2.61945 12C2.61945 11.3353 2.81575 10.6854 3.18373 10.1318C3.5517 9.57816 4.07497 9.14555 4.68788 8.88821C5.30079 8.63087 5.97604 8.56025 6.62893 8.68522C7.28182 8.81019 7.88327 9.12518 8.35782 9.59067L13.3266 6.40317C13.042 5.62134 13.0556 4.76208 13.3645 3.98959C13.6735 3.2171 14.2563 2.58553 15.0015 2.21557C15.7467 1.84562 16.6021 1.76321 17.4043 1.98409C18.2064 2.20498 18.899 2.71367 19.3498 3.41297C19.8006 4.11227 19.9779 4.95314 19.8479 5.77491C19.7178 6.59668 19.2896 7.34173 18.6449 7.86769C18.0003 8.39366 17.1844 8.66366 16.3533 8.6261C15.5221 8.58855 14.734 8.24607 14.1394 7.66411L9.17063 10.8563C9.43917 11.5984 9.43917 12.4111 9.17063 13.1532L14.1394 16.3454C14.6138 15.8811 15.2146 15.567 15.8665 15.4424C16.5185 15.3178 17.1928 15.3882 17.805 15.6449C18.4171 15.9016 18.94 16.333 19.3082 16.8853C19.6764 17.4376 19.8736 18.0863 19.875 18.75Z" fill="#413633"/>
</svg>
