<svg width="24" height="24" viewBox="0 0 24 24" fill="none" xmlns="http://www.w3.org/2000/svg">
<path d="M20.25 14.25C20.2473 16.434 19.3798 18.528 17.8373 20.074C16.2947 21.6201 14.2027 22.4923 12.0188 22.5C7.26939 22.5112 3.56158 18.4688 3.75751 13.7231C3.87095 10.9847 4.85533 8.0475 6.49783 5.58375C8.20314 3.02719 10.2591 1.5 12 1.5C13.2422 1.5 14.6466 2.28 15.9694 3.65625C16.0349 3.72452 16.0721 3.81502 16.0737 3.90959C16.0752 4.00417 16.041 4.09585 15.9778 4.16625L11.4375 9.25031C11.3515 9.34646 11.2917 9.46318 11.264 9.58918C11.2362 9.71518 11.2415 9.8462 11.2792 9.96958C11.3169 10.093 11.3858 10.2045 11.4792 10.2935C11.5726 10.3825 11.6874 10.4459 11.8125 10.4775L14.1197 11.0541L13.5094 14.1028C13.4705 14.2979 13.5107 14.5004 13.6211 14.6658C13.7315 14.8313 13.9031 14.9461 14.0981 14.985C14.1481 14.9954 14.199 15.0004 14.25 15C14.4231 14.9997 14.5908 14.9395 14.7246 14.8296C14.8584 14.7197 14.9501 14.567 14.9841 14.3972L15.7341 10.6472C15.7719 10.4583 15.7355 10.262 15.6325 10.0992C15.5296 9.9363 15.3679 9.81933 15.1809 9.7725L13.3847 9.32344L16.8431 5.44875C16.8811 5.40625 16.9282 5.37294 16.9809 5.35136C17.0336 5.32978 17.0905 5.32049 17.1474 5.32419C17.2042 5.3279 17.2594 5.3445 17.3089 5.37274C17.3584 5.40098 17.4007 5.44012 17.4328 5.48719C17.4553 5.51906 17.4769 5.55094 17.4984 5.58094C19.2469 8.20687 20.25 11.3653 20.25 14.25Z" fill="url(#paint0_radial_16_1066)"/>
<defs>
<radialGradient id="paint0_radial_16_1066" cx="0" cy="0" r="1" gradientUnits="userSpaceOnUse" gradientTransform="translate(15 22) rotate(-107.198) scale(21.983 18.2285)">
<stop stop-color="#806352"/>
<stop offset="1" stop-color="#DEB7A0"/>
</radialGradient>
</defs>
</svg>
