<svg width="24" height="24" viewBox="0 0 24 24" fill="none" xmlns="http://www.w3.org/2000/svg">
<g clip-path="url(#clip0_16_1068)">
<path d="M15.7556 7.11939C15.7556 7.34189 15.6896 7.5594 15.566 7.7444C15.4424 7.92941 15.2667 8.0736 15.0611 8.15875C14.8556 8.2439 14.6294 8.26618 14.4111 8.22277C14.1929 8.17936 13.9925 8.07221 13.8351 7.91488C13.6778 7.75755 13.5706 7.55709 13.5272 7.33886C13.4838 7.12063 13.5061 6.89443 13.5913 6.68887C13.6764 6.4833 13.8206 6.3076 14.0056 6.18398C14.1906 6.06037 14.4081 5.99439 14.6306 5.99439C14.929 5.99439 15.2151 6.11291 15.4261 6.32389C15.6371 6.53487 15.7556 6.82102 15.7556 7.11939ZM19.4934 14.7131C17.5472 17.1853 14.445 18.5325 10.2675 18.7228L8.20499 23.5434C8.14725 23.6793 8.05071 23.795 7.92747 23.8763C7.80424 23.9575 7.65977 24.0005 7.51218 24H7.46437C7.30982 23.9903 7.16206 23.933 7.04137 23.836C6.92067 23.739 6.83298 23.607 6.79031 23.4581L5.40187 18.5972L0.543744 17.2059C0.394467 17.164 0.261854 17.0769 0.164157 16.9565C0.0664603 16.836 0.00848201 16.6883 -0.00179789 16.5336C-0.0120778 16.3789 0.025846 16.2248 0.106754 16.0925C0.187662 15.9603 0.307577 15.8563 0.449994 15.795L5.27156 13.7325C5.45906 9.55407 6.80999 6.45189 9.28312 4.50657C13.3341 1.31907 19.1184 2.36626 20.2369 2.60814C20.5186 2.66902 20.7769 2.8098 20.9807 3.01364C21.1846 3.21748 21.3254 3.47574 21.3862 3.75751C21.6337 4.87501 22.6819 10.665 19.4934 14.7188V14.7131ZM19.9247 4.07345C18.9206 3.85595 13.7372 2.91189 10.215 5.68407C9.77094 6.03454 9.3675 6.43358 9.01218 6.87376C8.9762 7.36383 9.04766 7.85584 9.22157 8.31543C9.39549 8.77501 9.66766 9.19107 10.0191 9.53454C10.3705 9.878 10.7927 10.1406 11.2561 10.304C11.7195 10.4673 12.2131 10.5275 12.7022 10.4803C12.8121 10.4699 12.923 10.4839 13.027 10.5213C13.1309 10.5587 13.2253 10.6185 13.3034 10.6966C13.3815 10.7747 13.4413 10.8691 13.4787 10.973C13.5161 11.077 13.5301 11.1879 13.5197 11.2978C13.4725 11.7871 13.5327 12.2808 13.6962 12.7444C13.8596 13.208 14.1224 13.6302 14.4661 13.9817C14.8097 14.3331 15.226 14.6053 15.6859 14.7791C16.1457 14.9528 16.6379 15.0241 17.1281 14.9878C17.567 14.633 17.9648 14.2302 18.3141 13.7869C21.0862 10.2647 20.1422 5.07939 19.9247 4.07532V4.07345Z" fill="url(#paint0_linear_16_1068)"/>
</g>
<defs>
<linearGradient id="paint0_linear_16_1068" x1="10.8728" y1="2.25012" x2="10.8728" y2="24" gradientUnits="userSpaceOnUse">
<stop stop-color="#6CAAE3"/>
<stop offset="1" stop-color="#1E5ACD"/>
</linearGradient>
<clipPath id="clip0_16_1068">
<rect width="24" height="24" fill="white"/>
</clipPath>
</defs>
</svg>
