<svg width="24" height="24" viewBox="0 0 24 24" fill="none" xmlns="http://www.w3.org/2000/svg">
<path d="M21.75 13.5C21.7483 15.0907 21.1156 16.6159 19.9907 17.7407C18.8659 18.8655 17.3408 19.4982 15.75 19.5H7.50001C7.3011 19.5 7.11033 19.421 6.96968 19.2803C6.82903 19.1397 6.75001 18.9489 6.75001 18.75C6.75001 18.5511 6.82903 18.3603 6.96968 18.2196C7.11033 18.079 7.3011 18 7.50001 18H15.75C16.9435 18 18.0881 17.5259 18.932 16.682C19.7759 15.838 20.25 14.6935 20.25 13.5C20.25 12.3065 19.7759 11.1619 18.932 10.318C18.0881 9.47409 16.9435 8.99998 15.75 8.99998H8.25001V12.75C8.25013 12.8984 8.2062 13.0435 8.1238 13.167C8.0414 13.2904 7.92422 13.3866 7.7871 13.4434C7.64999 13.5003 7.49909 13.5151 7.35353 13.4861C7.20797 13.4571 7.07428 13.3856 6.96938 13.2806L2.46939 8.78061C2.39965 8.71095 2.34433 8.62823 2.30659 8.53719C2.26885 8.44614 2.24942 8.34854 2.24942 8.24998C2.24942 8.15142 2.26885 8.05382 2.30659 7.96278C2.34433 7.87173 2.39965 7.78901 2.46939 7.71936L6.96938 3.21936C7.07428 3.11435 7.20797 3.04282 7.35353 3.01383C7.49909 2.98485 7.64999 2.9997 7.7871 3.05651C7.92422 3.11333 8.0414 3.20955 8.1238 3.33299C8.2062 3.45644 8.25013 3.60156 8.25001 3.74998V7.49998H15.75C17.3408 7.50172 18.8659 8.13442 19.9907 9.25926C21.1156 10.3841 21.7483 11.9092 21.75 13.5Z" fill="#413633"/>
</svg>
