<svg width="24" height="24" viewBox="0 0 24 24" fill="none" xmlns="http://www.w3.org/2000/svg">
<path d="M2.25001 12C2.252 10.2104 2.96379 8.49464 4.22923 7.2292C5.49467 5.96376 7.21041 5.25197 9.00001 5.24998H18V3.74998C17.9999 3.60156 18.0438 3.45644 18.1262 3.33299C18.2086 3.20955 18.3258 3.11333 18.4629 3.05651C18.6 2.9997 18.7509 2.98485 18.8965 3.01383C19.0421 3.04282 19.1757 3.11435 19.2806 3.21936L21.5306 5.46936C21.6004 5.53901 21.6557 5.62173 21.6934 5.71278C21.7312 5.80382 21.7506 5.90142 21.7506 5.99998C21.7506 6.09854 21.7312 6.19614 21.6934 6.28719C21.6557 6.37823 21.6004 6.46095 21.5306 6.53061L19.2806 8.78061C19.1757 8.88561 19.0421 8.95714 18.8965 8.98613C18.7509 9.01512 18.6 9.00026 18.4629 8.94345C18.3258 8.88663 18.2086 8.79041 18.1262 8.66697C18.0438 8.54352 17.9999 8.3984 18 8.24998V6.74998H9.00001C7.60808 6.75147 6.27359 7.30507 5.28934 8.28931C4.3051 9.27356 3.7515 10.6081 3.75001 12C3.75001 12.1989 3.67099 12.3897 3.53034 12.5303C3.38969 12.671 3.19892 12.75 3.00001 12.75C2.8011 12.75 2.61033 12.671 2.46968 12.5303C2.32903 12.3897 2.25001 12.1989 2.25001 12ZM21 11.25C20.8011 11.25 20.6103 11.329 20.4697 11.4697C20.329 11.6103 20.25 11.8011 20.25 12C20.2485 13.3919 19.6949 14.7264 18.7107 15.7106C17.7264 16.6949 16.3919 17.2485 15 17.25H6.00001V15.75C6.00013 15.6016 5.9562 15.4564 5.8738 15.333C5.7914 15.2095 5.67422 15.1133 5.5371 15.0565C5.39999 14.9997 5.24909 14.9848 5.10353 15.0138C4.95797 15.0428 4.82428 15.1143 4.71939 15.2194L2.46939 17.4694C2.39965 17.539 2.34433 17.6217 2.30659 17.7128C2.26885 17.8038 2.24942 17.9014 2.24942 18C2.24942 18.0985 2.26885 18.1961 2.30659 18.2872C2.34433 18.3782 2.39965 18.461 2.46939 18.5306L4.71939 20.7806C4.82428 20.8856 4.95797 20.9571 5.10353 20.9861C5.24909 21.0151 5.39999 21.0003 5.5371 20.9434C5.67422 20.8866 5.7914 20.7904 5.8738 20.667C5.9562 20.5435 6.00013 20.3984 6.00001 20.25V18.75H15C16.7896 18.748 18.5053 18.0362 19.7708 16.7708C21.0362 15.5053 21.748 13.7896 21.75 12C21.75 11.8011 21.671 11.6103 21.5303 11.4697C21.3897 11.329 21.1989 11.25 21 11.25ZM12.75 15C12.9489 15 13.1397 14.921 13.2803 14.7803C13.421 14.6397 13.5 14.4489 13.5 14.25V9.74998C13.5001 9.62207 13.4675 9.49627 13.4052 9.38452C13.343 9.27277 13.2532 9.1788 13.1444 9.11153C13.0356 9.04427 12.9115 9.00594 12.7837 9.0002C12.6559 8.99446 12.5288 9.02149 12.4144 9.07873L10.9144 9.82873C10.7365 9.91774 10.6012 10.0738 10.5384 10.2625C10.4755 10.4513 10.4902 10.6572 10.5792 10.8351C10.6682 11.013 10.8243 11.1483 11.013 11.2111C11.2018 11.274 11.4077 11.2593 11.5856 11.1703L12 10.9631V14.25C12 14.4489 12.079 14.6397 12.2197 14.7803C12.3603 14.921 12.5511 15 12.75 15Z" fill="#413633"/>
</svg>
